<svg xmlns="http://www.w3.org/2000/svg" viewBox="0 0 331 29">
  <defs>
    <style>
      .a {
        isolation: isolate;
      }

      .b {
        fill: #000a02;
      }

      .c {
        fill: #00c000;
        mix-blend-mode: hard-light;
      }
    </style>
  </defs>
  <title>Wikimedium Logo</title>
  <g class="a">
    <g>
      <rect class="b" x="9.05" y="0.15" width="9.9" height="29.7" transform="translate(-6.51 14.29) rotate(-45)"/>
      <rect class="b" x="13.15" y="10.05" width="29.7" height="9.9" transform="translate(-2.41 24.19) rotate(-45)"/>
      <rect class="b" x="37.05" y="0.15" width="9.9" height="29.7" transform="translate(1.69 34.09) rotate(-45)"/>
      <rect class="b" x="41.15" y="10.05" width="29.7" height="9.9" transform="translate(5.8 43.99) rotate(-45)"/>
      <rect class="c" x="51.05" y="0.15" width="9.9" height="29.7" transform="translate(5.8 43.99) rotate(-45)"/>
      <rect class="c" x="-0.85" y="10.05" width="29.7" height="9.9" transform="translate(-6.51 14.29) rotate(-45)"/>
      <rect class="c" x="23.05" y="0.15" width="9.9" height="29.7" transform="translate(-2.41 24.19) rotate(-45)"/>
      <rect class="c" x="27.15" y="10.05" width="29.7" height="9.9" transform="translate(1.69 34.09) rotate(-45)"/>
      <path d="M95.88,19.16l0.64,4.68H96.6l0.72-4.76L103.52,1h2l6.24,18.16,0.72,4.68h0.08l0.75-4.76L118.2,1h4l-8.52,28.4H111.4l-6.12-18.2L104.44,7h-0.2l-0.8,4.28L97.32,29.4H95L86.32,1h4.24Z"/>
      <path d="M126.32,3A2.33,2.33,0,0,1,127,1.34,2.51,2.51,0,0,1,128.92.6a2.64,2.64,0,0,1,1.92.74A2.27,2.27,0,0,1,131.6,3a2.15,2.15,0,0,1-.76,1.62,2.73,2.73,0,0,1-1.92.7,2.58,2.58,0,0,1-1.88-.7A2.2,2.2,0,0,1,126.32,3Zm0.76,5h3.68V29h-3.68V8Z"/>
      <path d="M144.68,19.56H142.4V29h-3.68V1h3.68V17.56l2.08-.68,7-8.88h4.32l-6.68,8.12h0l-2.2,1.6,2.52,1.8,7.4,9.48H152.2Z"/>
      <path d="M161.28,3A2.33,2.33,0,0,1,162,1.34,2.51,2.51,0,0,1,163.88.6a2.64,2.64,0,0,1,1.92.74A2.27,2.27,0,0,1,166.56,3a2.15,2.15,0,0,1-.76,1.62,2.73,2.73,0,0,1-1.92.7,2.58,2.58,0,0,1-1.88-.7A2.2,2.2,0,0,1,161.28,3ZM162,8h3.68V29H162V8Z"/>
      <path d="M187.28,29V17.48a24.21,24.21,0,0,0-.16-3,5.89,5.89,0,0,0-.64-2.14,3,3,0,0,0-1.34-1.28,5.09,5.09,0,0,0-2.22-.42,5.36,5.36,0,0,0-3.54,1.18,6.42,6.42,0,0,0-2,3V29h-3.68V8h2.52l0.72,2.8h0.4a12.24,12.24,0,0,1,2.94-2.42,8.2,8.2,0,0,1,4.22-1,6.67,6.67,0,0,1,3.62.92,5.71,5.71,0,0,1,2.22,3.08,9.07,9.07,0,0,1,3-2.92,8,8,0,0,1,4.12-1.08,10.55,10.55,0,0,1,3.26.44,4.46,4.46,0,0,1,2.18,1.52,7.2,7.2,0,0,1,1.24,2.92,22.39,22.39,0,0,1,.4,4.64V29h-3.68V16.92a18.27,18.27,0,0,0-.18-2.76,5.2,5.2,0,0,0-.66-1.94,2.93,2.93,0,0,0-1.34-1.16,5.67,5.67,0,0,0-2.26-.38,5.15,5.15,0,0,0-3.6,1.2,6.81,6.81,0,0,0-1.88,3.6V29h-3.68Z"/>
      <path d="M228.68,27.28a11.12,11.12,0,0,1-3.48,1.66,15.77,15.77,0,0,1-4.52.62,12.26,12.26,0,0,1-4.58-.78,8.1,8.1,0,0,1-3.18-2.22,9.25,9.25,0,0,1-1.84-3.48,16.13,16.13,0,0,1-.6-4.56q0-5.4,2.66-8.26t7.58-2.86a14.62,14.62,0,0,1,3.12.34A7.07,7.07,0,0,1,226.64,9a6.86,6.86,0,0,1,2,2.58,10,10,0,0,1,.78,4.28q0,0.64,0,1.48a16.44,16.44,0,0,1-.16,1.64h-15A8.39,8.39,0,0,0,216,24.56q1.68,1.88,5.72,1.88a8.9,8.9,0,0,0,3.2-.58,7,7,0,0,0,2.36-1.38Zm-2.76-10.92q0.08-3.2-1.3-4.52a5.36,5.36,0,0,0-3.86-1.32,6.88,6.88,0,0,0-4.44,1.32q-1.64,1.32-1.92,4.52h11.52Z"/>
      <path d="M253.52,21.76q0,2,.06,3.82a23.36,23.36,0,0,0,.38,3.5h-2.44l-0.92-3.2h-0.4a7.23,7.23,0,0,1-2.7,2.64,8.05,8.05,0,0,1-4.14,1q-4.52,0-6.74-2.68t-2.22-8.24q0-5.36,2.74-8.22t7.7-2.86q0.84,0,1.5.06l1.24,0.14A7.7,7.7,0,0,1,248.7,8l1.14,0.32V1h3.68V21.76Zm-3.68-9.88a5.57,5.57,0,0,0-2-.94,12.41,12.41,0,0,0-2.84-.26A6.65,6.65,0,0,0,240,12.56q-1.79,1.88-1.79,6.12a14,14,0,0,0,.32,3.1,7.45,7.45,0,0,0,1,2.46,4.72,4.72,0,0,0,1.81,1.62,6,6,0,0,0,2.78.58,5.55,5.55,0,0,0,3.83-1.22,6.77,6.77,0,0,0,1.93-3.62V11.88Z"/>
      <path d="M261,3a2.33,2.33,0,0,1,.72-1.66A2.51,2.51,0,0,1,263.56.6a2.64,2.64,0,0,1,1.92.74A2.27,2.27,0,0,1,266.24,3a2.15,2.15,0,0,1-.76,1.62,2.73,2.73,0,0,1-1.92.7,2.58,2.58,0,0,1-1.88-.7A2.2,2.2,0,0,1,261,3Zm0.76,5h3.68V29h-3.68V8Z"/>
      <path d="M277,8V19.56a19.31,19.31,0,0,0,.2,3,5.85,5.85,0,0,0,.72,2.14A3.47,3.47,0,0,0,279.38,26a5,5,0,0,0,2.3.46,5.65,5.65,0,0,0,3.92-1.36,8.84,8.84,0,0,0,2.32-3.36V8h3.68V23q0,1.52.12,3.1a26.47,26.47,0,0,0,.36,2.86H289.6l-1-3.48h-0.4a8.18,8.18,0,0,1-2.88,2.92,8.71,8.71,0,0,1-4.6,1.12,10.63,10.63,0,0,1-3.22-.44,5.11,5.11,0,0,1-2.32-1.5,6.73,6.73,0,0,1-1.4-2.82,17.68,17.68,0,0,1-.46-4.4V8H277Z"/>
      <path d="M312.72,29V17.48a24.21,24.21,0,0,0-.16-3,5.89,5.89,0,0,0-.64-2.14,3,3,0,0,0-1.34-1.28,5.09,5.09,0,0,0-2.22-.42,5.36,5.36,0,0,0-3.54,1.18,6.42,6.42,0,0,0-2,3V29h-3.68V8h2.52l0.72,2.8h0.4a12.24,12.24,0,0,1,2.94-2.42,8.2,8.2,0,0,1,4.22-1,6.67,6.67,0,0,1,3.62.92,5.71,5.71,0,0,1,2.22,3.08,9.07,9.07,0,0,1,3-2.92,8,8,0,0,1,4.12-1.08,10.55,10.55,0,0,1,3.26.44,4.46,4.46,0,0,1,2.18,1.52,7.2,7.2,0,0,1,1.24,2.92,22.39,22.39,0,0,1,.4,4.64V29h-3.68V16.92a18.27,18.27,0,0,0-.18-2.76,5.2,5.2,0,0,0-.66-1.94,2.93,2.93,0,0,0-1.34-1.16,5.67,5.67,0,0,0-2.26-.38,5.15,5.15,0,0,0-3.6,1.2,6.81,6.81,0,0,0-1.88,3.6V29h-3.68Z"/>
    </g>
  </g>
</svg>
