<?xml version="1.0" encoding="utf-8"?>
<svg version="1.1" id="Layer_1" xmlns="http://www.w3.org/2000/svg" xmlns:xlink="http://www.w3.org/1999/xlink" x="0px" y="0px" viewBox="0 0 210 20" style="enable-background:new 0 0 210 20;" xml:space="preserve">
	<style type="text/css">
    .white {
      fill: #FFFFFF;
    }

		.black {
      fill: #000A02;
    }

		.green {
      fill: #00C000;
      mix-blend-mode: hard-light;
    }
	</style>
  <rect class="white" width="210" height="20"/>
	<polygon class="black" points="205,0 195,10 185,0 175,10 165,0 155,10 145,0 135,10 125,0 115,10 105,0 95,10 85,0 75,10 65,0 55,10 45,0 35,10 25,0 20,5 15,10 5,0 0,5 10,15 15,20 25,10 35,20 45,10 55,20 65,10 75,20 85,10 95,20 105,10 115,20 125,10 135,20 145,10 155,20 165,10 175,20 185,10 195,20 210,5 "/>
	<polygon class="green" points="210,15 195,0 185,10 175,0 165,10 155,0 145,10 135,0 125,10 115,0 105,10 95,0 85,10 75,0 65,10 55,0 45,10 35,0 25,10 15,0 0,15 5,20 15,10 25,20 35,10 45,20 55,10 65,20 75,10 85,20 95,10 105,20 115,10 125,20 135,10 145,20 155,10 165,20 175,10 185,20 195,10 205,20 "/>
</svg>
